<?xml version="1.0" standalone="no"?>
<!DOCTYPE svg PUBLIC "-//W3C//DTD SVG 1.1//EN" "http://www.w3.org/Graphics/SVG/1.1/DTD/svg11.dtd" >
<svg xmlns="http://www.w3.org/2000/svg">
  <metadata>Created by iconfont</metadata>
  <defs>
  <font id="iconfont" horiz-adv-x="1024">
    <font-face
      font-family="iconfont"
      font-weight="400"
      font-stretch="normal"
      units-per-em="1024"
      ascent="896"
      descent="-128"
    />
      <missing-glyph />
      
      <glyph glyph-name="shanchu" unicode="&#58903;" d="M917.9 595.5H106.7c-12.4 0-22.4 10-22.4 22.4s10 22.4 22.4 22.4H918c12.4 0 22.4-10 22.4-22.4s-10.1-22.4-22.5-22.4zM693-23.3H331.5c-66.9 0-121.4 54.4-121.4 121.3V596.4c0 24.3 19.8 44 44 44h516.1c24.3 0 44-19.8 44-44v-498.3c0.2-66.9-54.2-121.4-121.2-121.4z m76.5 619.7l-515.3-0.8 0.8-497.5c0-42.2 34.3-76.5 76.5-76.5H693c42.2 0 76.5 34.3 76.5 76.5V596.4zM666.4 595.5H358.1V718.2c0 37.5 30.5 68 68 68h172.4c37.5 0 68-30.5 68-68v-122.7zM403 640.4h218.6v77.8c0 12.7-10.4 23.1-23.1 23.1H426.1c-12.7 0-23.1-10.4-23.1-23.1v-77.8zM380.6 142.6c-12.4 0-22.4 10-22.4 22.4V410.3c0 12.4 10 22.4 22.4 22.4s22.4-10 22.4-22.4V165c0-12.4-10-22.4-22.4-22.4zM644 142.6c-12.4 0-22.4 10-22.4 22.4V410.3c0 12.4 10 22.4 22.4 22.4 12.4 0 22.4-10 22.4-22.4V165c0-12.4-10-22.4-22.4-22.4zM512.3 228.3c-12.4 0-22.4 10-22.4 22.4v98.7c0 12.4 10 22.4 22.4 22.4 12.4 0 22.4-10 22.4-22.4v-98.7c0-12.3-10-22.4-22.4-22.4z"  horiz-adv-x="1024" />
      
      <glyph glyph-name="yuyin" unicode="&#58904;" d="M512.3 212.9c-112.7 0-204.4 91.7-204.4 204.4V596.7c0 112.7 91.7 204.4 204.4 204.4s204.4-91.7 204.4-204.4v-179.5c0-112.6-91.7-204.3-204.4-204.3z m0 537.6c-84.8 0-153.8-69-153.8-153.8v-179.5c0-84.8 69-153.7 153.8-153.7S666 332.5 666 417.2V596.7c0 84.8-68.9 153.8-153.7 153.8zM512.3 105.5c-139.4 0-264.1 83.7-317.6 213.2-5.4 12.9 0.8 27.7 13.7 33.1 13 5.4 27.7-0.8 33.1-13.7 45.7-110.5 152-181.9 270.9-181.9 118.8 0 225.1 71.4 270.9 181.9 5.3 12.9 20.1 19.1 33.1 13.7 12.9-5.3 19.1-20.1 13.7-33.1-53.7-129.5-178.4-213.2-317.8-213.2zM512.3-33.5c-14 0-25.3 11.3-25.3 25.3V102.6c0 14 11.3 25.3 25.3 25.3s25.3-11.3 25.3-25.3v-110.8c0-14-11.3-25.3-25.3-25.3z"  horiz-adv-x="1024" />
      
      <glyph glyph-name="wangluo" unicode="&#58905;" d="M907.1 335.2c-0.7 0-1.3 0-2 0.1-70.3 7-143.7 12.1-218.1 15.1-10.7 0.4-19.2 9.3-19.2 20v1.9 1.4c0 75.8-7.5 150.4-21.5 215.9-13.4 62.7-32.5 116-55.3 154.2-4.1 6.9-3.7 15.6 1.1 22.1 4.8 6.5 13 9.5 20.8 7.6 44.5-10.8 86.6-28.8 125.2-53.7 37.9-24.4 71.4-54.7 99.6-89.9 28.4-35.6 50.6-75.4 65.9-118.1 15.8-44.2 23.8-90.7 23.9-138.1 0-6.1-0.2-12.4-0.5-19.5-0.3-5.5-2.8-10.6-6.9-14.2-3.5-3.1-8.2-4.8-13-4.8z m-199.3 54.4c61.1-2.8 121.4-6.9 179.8-12.4-0.4 41.6-7.7 82.3-21.5 121.2-13.8 38.6-33.8 74.4-59.5 106.6-41.7 52.3-97.1 92.5-159.1 116.1 36.7-84.3 58.6-203.3 60.3-331.5zM125.1 334.1c-4.8 0-9.4 1.7-13 4.8-4.2 3.6-6.7 8.7-7 14.2-0.3 7-0.5 13.9-0.5 20.6 0 47.4 8 93.9 23.7 138.2 15.2 42.8 37.4 82.5 65.8 118.2 28.2 35.3 61.7 65.6 99.6 90 38.6 24.8 80.8 42.9 125.3 53.7 7.8 1.9 16-1.1 20.8-7.6 4.8-6.5 5.2-15.2 1.1-22.1-22.8-38.2-41.9-91.6-55.3-154.3-14-65.6-21.4-140.3-21.4-216v-3.7c0-10.7-8.4-19.6-19.1-20-75.3-3.3-148.6-8.6-218-15.8-0.6-0.2-1.3-0.2-2-0.2z m259.6 387.1c-62-23.6-117.5-63.8-159.2-116.1-25.7-32.2-45.7-68.1-59.4-106.7-14-39.2-21.2-80.3-21.4-122.3 57.8 5.6 118.1 9.9 179.8 12.9 1.5 128.5 23.4 247.8 60.2 332.2zM344.4 349.9c-5.1 0-10.1 2-13.8 5.5-3.9 3.8-6.2 9-6.2 14.4v1.6 2.3c0 158.2 30.8 304.3 82.3 390.8 2.8 4.6 7.3 7.9 12.5 9.2 31.8 7.7 64.4 11.6 96.8 11.6 32.5 0 65.2-4 97.1-11.7 5.2-1.3 9.7-4.6 12.5-9.2C677 678 707.8 532 707.9 373.8v-3.4c0-5.4-2.2-10.6-6.2-14.4-3.9-3.8-9.2-5.8-14.7-5.6-54.9 2.2-110.4 3.3-165 3.3h-0.3c-58.1 0-117.5-1.3-176.6-3.9-0.2 0.1-0.5 0.1-0.7 0.1z m92.4 386.8c-20.9-37.6-38.5-88.2-51.1-147-12.9-60.6-20.2-129.1-21.3-199 52.7 2 105.6 3 157.4 3h0.3c48.2 0 97.1-0.9 145.7-2.6-1.1 69.7-8.4 138-21.3 198.5-12.6 58.8-30.2 109.4-51.1 146.9-26.2 5.7-52.8 8.6-79.4 8.6-26.5 0.2-53.1-2.7-79.2-8.4zM608.4-26.7c-6.3 0-12.3 2.9-16.1 8.1-4.8 6.5-5.2 15.2-1.1 22.1 22.6 37.9 41.6 90.8 55 152.9 14 64.9 21.4 138.9 21.7 214 0 5.4 2.2 10.6 6.2 14.4 3.9 3.8 9.2 5.8 14.6 5.5 75.2-3 149.3-8.2 220.5-15.3 10.6-1.1 18.5-10.2 18-20.8-2.1-45.4-11.6-89.7-28.2-131.6-16.1-40.7-38.5-78.5-66.7-112.2-27.9-33.5-60.8-62.2-97.7-85.4-37.6-23.6-78.4-40.8-121.4-51.2-1.7-0.3-3.2-0.5-4.8-0.5z m99.2 376.3c-2.5-125-24.3-240.9-60.1-323.3 22.9 8.7 44.9 19.6 65.8 32.7 33.3 20.9 63 46.9 88.3 77.1 25.4 30.5 45.7 64.6 60.2 101.3 12.7 32 20.7 65.5 24.1 99.9-57.9 5.4-117.7 9.5-178.3 12.3zM423.8-26.7c-1.6 0-3.1 0.2-4.7 0.6-42.9 10.4-83.7 27.5-121.2 51-36.8 23.1-69.7 51.7-97.6 85.1-28.1 33.6-50.6 71.3-66.7 111.8-16.6 41.9-26.2 86-28.5 131.2-0.5 10.6 7.3 19.8 17.9 20.9 70.2 7.3 144.4 12.6 220.4 15.9 5.4 0.2 10.7-1.8 14.7-5.5 3.9-3.8 6.2-9 6.2-14.4 0.2-75 7.7-148.9 21.7-213.7 13.4-62 32.4-114.8 54.9-152.7 4.1-6.9 3.7-15.6-1.1-22.1-3.7-5.1-9.7-8.1-16-8.1zM146.5 336.1c3.4-34.2 11.6-67.6 24.3-99.5 14.6-36.6 34.8-70.6 60.2-101 25.2-30.2 54.9-56 88.2-76.8 20.8-13 42.7-23.9 65.5-32.5-35.8 82.3-57.5 197.9-60.1 322.7-61.1-3-120.9-7.3-178.1-12.9zM516.1-37.7c-32.5 0-65.2 3.9-97 11.6-5.2 1.3-9.7 4.6-12.5 9.2-51 85.6-81.8 230.1-82.3 386.8 0 10.7 8.4 19.6 19.1 20 59.6 2.6 119.7 3.9 178.3 3.9h0.3c55.1 0 111.1-1.1 166.6-3.4 10.7-0.4 19.2-9.3 19.2-20-0.4-156.8-31.2-301.6-82.3-387.3-2.8-4.6-7.3-7.9-12.5-9.2-31.7-7.7-64.3-11.6-96.9-11.6 0.1 0 0 0 0 0z m-79.3 48.6c26.1-5.7 52.8-8.6 79.3-8.6s53.2 2.9 79.3 8.6c20.8 37.3 38.3 87.4 50.8 145.6 12.8 59.3 20.1 126.3 21.4 194.7-48.5 1.7-97.4 2.6-145.5 2.6h-0.3c-51.8 0-104.6-1-157.3-3.1 1.4-68.4 8.7-135.2 21.5-194.5 12.6-58.1 30.1-108.1 50.8-145.3z"  horiz-adv-x="1024" />
      
      <glyph glyph-name="suoxiao" unicode="&#58906;" d="M404.3-19.2c-11 0-20 9-20 20V203.2c0 29.9-24.3 54.2-54.2 54.2H127.7c-11 0-20 9-20 20s9 20 20 20h202.4c51.9 0 94.2-42.2 94.2-94.2v-202.4c0-11-9-20-20-20zM894.9 471.5H692.5c-51.9 0-94.2 42.2-94.2 94.2V768c0 11 9 20 20 20s20-9 20-20v-202.4c0-29.9 24.3-54.2 54.2-54.2h202.4c11 0 20-9 20-20s-8.9-19.9-20-19.9zM330.1 471.5H127.7c-11 0-20 9-20 20s9 20 20 20h202.4c29.9 0 54.2 24.3 54.2 54.2V768c0 11 9 20 20 20s20-9 20-20v-202.4c0-51.9-42.3-94.1-94.2-94.1zM618.4-19.2c-11 0-20 9-20 20V203.2c0 51.9 42.2 94.2 94.2 94.2H895c11 0 20-9 20-20s-9-20-20-20H692.5c-29.9 0-54.2-24.3-54.2-54.2v-202.4c0.1-11-8.9-20-19.9-20zM355.8 517.9c-5.1 0-10.2 2-14.1 5.9L141.5 723.9c-7.8 7.8-7.8 20.5 0 28.3s20.5 7.8 28.3 0l200.1-200.1c7.8-7.8 7.8-20.5 0-28.3-3.9-3.9-9-5.9-14.1-5.9zM856.7 19c-5.1 0-10.2 2-14.1 5.9L642.4 225c-7.8 7.8-7.8 20.5 0 28.3 7.8 7.8 20.5 7.8 28.3 0l200.1-200.1c7.8-7.8 7.8-20.5 0-28.3-3.8-3.9-8.9-5.9-14.1-5.9zM156.9 18.3c-5.1 0-10.2 2-14.1 5.9-7.8 7.8-7.8 20.5 0 28.3l200.1 200.1c7.8 7.8 20.5 7.8 28.3 0s7.8-20.5 0-28.3L171.1 24.2c-3.9-4-9-5.9-14.2-5.9zM655.9 519.2c-5.1 0-10.2 2-14.1 5.9-7.8 7.8-7.8 20.5 0 28.3l200.1 200.1c7.8 7.8 20.5 7.8 28.3 0 7.8-7.8 7.8-20.5 0-28.3L670 525.1c-3.9-3.9-9-5.9-14.1-5.9z"  horiz-adv-x="1024" />
      
      <glyph glyph-name="fangda" unicode="&#58907;" d="M409.2-1.1H215.5c-50.2 0-91 40.8-91 91V283.6c0 11 9 20 20 20s20-9 20-20v-193.7c0-28.1 22.9-51 51-51h193.7c11 0 20-9 20-20s-8.9-20-20-20zM878.9 468.6c-11 0-20 9-20 20V682.3c0 28.1-22.9 51-51 51H614.2c-11 0-20 9-20 20s9 20 20 20h193.7c50.2 0 91-40.8 91-91v-193.7c0-11.1-9-20-20-20zM144.5 468.6c-11 0-20 9-20 20V682.3c0 50.2 40.8 91 91 91h193.7c11 0 20-9 20-20s-9-20-20-20H215.5c-28.1 0-51-22.9-51-51v-193.7c0-11.1-8.9-20-20-20zM807.9-1.1H614.2c-11 0-20 9-20 20s9 20 20 20h193.7c28.1 0 51 22.9 51 51V283.6c0 11 9 20 20 20s20-9 20-20v-193.7c0-50.2-40.9-91-91-91zM382.5 497.2c-5.1 0-10.2 2-14.1 5.9L176.8 694.6c-7.8 7.8-7.8 20.5 0 28.3 7.8 7.8 20.5 7.8 28.3 0l191.6-191.6c7.8-7.8 7.8-20.5 0-28.3-3.9-3.8-9.1-5.8-14.2-5.8zM842.3 35.5c-5.1 0-10.2 2-14.1 5.9L636.6 232.9c-7.8 7.8-7.8 20.5 0 28.3s20.5 7.8 28.3 0l191.6-191.6c7.8-7.8 7.8-20.5 0-28.3-4-3.8-9.1-5.8-14.2-5.8zM189.7 36.2c-5.1 0-10.2 2-14.1 5.9-7.8 7.8-7.8 20.5 0 28.3L367.2 262c7.8 7.8 20.5 7.8 28.3 0s7.8-20.5 0-28.3L203.9 42c-3.9-3.9-9.1-5.8-14.2-5.8zM651.4 495.9c-5.1 0-10.2 2-14.1 5.9-7.8 7.8-7.8 20.5 0 28.3l191.6 191.6c7.8 7.8 20.5 7.8 28.3 0 7.8-7.8 7.8-20.5 0-28.3L665.6 501.8c-4-3.9-9.1-5.9-14.2-5.9z"  horiz-adv-x="1024" />
      
      <glyph glyph-name="wode2" unicode="&#58908;" d="M512.9 0.9c-52.6 0-104.9 10.7-153.7 32l-157.7-25c-10.9-1.7-21.9 1.6-30.1 9.2-8.1 7.6-12.2 18.3-11.3 29.3l13.6 157c-15 27.8-26.5 57.6-34.3 88.4-50.6 200.3 70.2 408.8 269.2 464.7 203.8 57.3 416.8-61.9 474.5-265.6 28-98.9 15.9-202.9-34.3-292.7-50.1-89.8-132.2-154.7-231.2-182.7-34.2-9.8-69.5-14.6-104.7-14.6z m-147.4 78.9l6.2-2.8c73.2-33.5 156.2-39.8 233.7-17.8 87.3 24.7 159.7 82 204 161.2 44.2 79.2 55 170.9 30.2 258.2-50.9 179.8-238.8 285-418.7 234.4-175.6-49.3-282.1-233.3-237.5-410 7.4-29.3 18.6-57.4 33.3-83.5l3.4-6.1-13.8-158.8 159.2 25.2zM512.9 154C441.8 154 384 211.8 384 282.9c0 12.5 10.1 22.6 22.6 22.6s22.6-10.1 22.6-22.6c0-46.1 37.5-83.6 83.6-83.6s83.6 37.5 83.6 83.6c0 12.5 10.1 22.6 22.6 22.6s22.6-10.1 22.6-22.6c0.2-71.1-57.7-128.9-128.7-128.9z"  horiz-adv-x="1024" />
      
      <glyph glyph-name="xindian" unicode="&#58909;" d="M517 15.4c-32.1 0-62.3 12.6-85.1 35.4L187.6 297c-94.8 95.7-94.8 251.2 0 346.8 46 46.4 107.2 71.9 172.3 71.9 58.2 0 113.2-20.4 157.1-57.8 43.9 37.4 98.9 57.8 157.1 57.8 65.1 0 126.3-25.5 172.2-71.8 94.8-95.6 94.8-251.2 0-346.8L602 50.9c-22.6-22.8-52.8-35.5-85-35.5zM359.9 672.8c-53.6 0-104-21-141.9-59.2-78.3-78.9-78.3-207.4 0-286.4L462.3 81c14.6-14.7 34-22.7 54.7-22.7 20.7 0 40 8.1 54.5 22.8l244.4 246.2c78.3 78.9 78.3 207.4 0 286.4-37.9 38.1-88.2 59.1-141.8 59.1-53.6 0-104-21-141.9-59.2L517 598.3l-15.2 15.3c-37.9 38.2-88.3 59.2-141.9 59.2zM478.4 236.9c-12.8 0-24.2 7.4-29.5 19.3l-46.8 106.2-42.6-60.7c-6-8.6-15.9-13.8-26.5-13.8h-43.2c-11.8 0-21.4 9.6-21.4 21.4s9.6 21.4 21.4 21.4h37.7l50.1 71.5c6.7 9.6 18.1 14.7 29.7 13.6 11.6-1.1 21.7-8.5 26.4-19.1l42.3-96 64.2 237c3.9 14.2 16.3 23.8 30.9 23.9h0.3c14.5 0 27-9.4 31.1-23.3l55.8-191.8h85.6c11.8 0 21.4-9.6 21.4-21.4s-9.6-21.4-21.4-21.4h-93.5c-14.3 0-27.1 9.6-31.1 23.3l-47.5 163.5-62.2-229.6c-3.6-13.4-14.9-22.8-28.8-23.8-0.7-0.2-1.5-0.2-2.4-0.2z m-154 89.3z"  horiz-adv-x="1024" />
      
      <glyph glyph-name="zhengque" unicode="&#58910;" d="M512.5-3.2c-213.4 0-387 173.6-387 387s173.6 387 387 387 387-173.6 387-387-173.6-387-387-387z m0 728.5C324.2 725.3 171 572.1 171 383.8s153.2-341.5 341.5-341.5S854 195.6 854 383.8 700.8 725.3 512.5 725.3zM464.8 258.5L357.7 365.6c-8.9 8.9-8.9 23.3 0 32.2s23.3 8.9 32.2 0l74.9-74.9 170.3 170.3c8.9 8.9 23.3 8.9 32.2 0s8.9-23.3 0-32.2L464.8 258.5z"  horiz-adv-x="1024" />
      
      <glyph glyph-name="guanji" unicode="&#58911;" d="M512.4-26.9c-212.3 0-385 172.7-385 385 0 148.5 86.9 285.3 221.5 348.6 11.8 5.5 25.8 0.5 31.4-11.3 5.5-11.8 0.5-25.8-11.3-31.4-118.1-55.5-194.4-175.6-194.4-305.9 0-186.3 151.6-337.9 337.9-337.9s337.9 151.6 337.9 337.9c0 130.3-76.3 250.4-194.4 305.9-11.8 5.5-16.8 19.6-11.3 31.4 5.5 11.8 19.6 16.9 31.4 11.3 134.6-63.2 221.5-200.1 221.5-348.6-0.2-212.3-172.9-385-385.2-385zM512.4 473.9c-13 0-23.6 10.6-23.6 23.6V767c0 13 10.6 23.6 23.6 23.6 13 0 23.6-10.6 23.6-23.6v-269.5c0-13.1-10.5-23.6-23.6-23.6z"  horiz-adv-x="1024" />
      
      <glyph glyph-name="huati" unicode="&#58912;" d="M214.6-2c-18.9 0-37.5 7.4-51.4 21.2-19.4 19.1-26.5 47.1-18.7 73.2l31.2 105.1C140.6 260.6 124.2 331.8 128 404c10 197.8 173.1 358.1 371.2 364.8 103.9 3.8 206.4-35.5 280.9-108.2 75-72.1 117.7-173.1 117.2-277.1-0.2-206.4-168.2-378.8-374.5-384.3-60.3-1.7-120.6 11-175.1 36.8l-111.2-34.7c-7.2-2.2-14.6-3.3-21.9-3.3z m298.6 725.6c-4.1 0-8.3-0.1-12.4-0.2-174.8-5.9-318.6-147.3-327.5-321.8-3.5-66.7 12.5-132.3 46.5-189.8l5-8.5-36.8-124c-3-9.9-0.3-20.6 7.1-27.8 7.4-7.3 18.1-9.8 27.9-6.8l128.7 40.2 8.2-4.1c49.9-25.1 105.9-37.5 161.8-36 181.9 4.9 330.1 156.9 330.3 339 0.4 91.7-37.2 180.7-103.3 244.2l-0.1 0.1c-62.9 61-148 95.5-235.4 95.5zM664.5 414.3H360.7c-12.6 0-22.7 10.2-22.7 22.7s10.2 22.7 22.7 22.7h303.8c12.6 0 22.7-10.2 22.7-22.7s-10.1-22.7-22.7-22.7zM664.5 281.9H360.7c-12.6 0-22.7 10.2-22.7 22.7s10.2 22.7 22.7 22.7h303.8c12.6 0 22.7-10.2 22.7-22.7 0-12.6-10.1-22.7-22.7-22.7zM433.4 196.8c-0.7 0-1.3 0-2 0.1-12.5 1.1-21.8 12.1-20.7 24.6l26.5 302.7c1.1 12.5 12.2 21.7 24.6 20.7 12.5-1.1 21.8-12.1 20.7-24.6L456 217.5c-1-11.8-10.9-20.7-22.6-20.7zM565.4 196.8c-0.7 0-1.3 0-2 0.1-12.5 1.1-21.8 12.1-20.7 24.6l26.5 302.7c1.1 12.5 12.2 21.7 24.6 20.7 12.5-1.1 21.8-12.1 20.7-24.6L588 217.5c-1-11.8-11-20.7-22.6-20.7z"  horiz-adv-x="1024" />
      
      <glyph glyph-name="wode" unicode="&#58913;" d="M510.5-3.5c-213.4 0-387 173.6-387 387s173.6 387 387 387 387-173.6 387-387-173.6-387-387-387z m0 728.5C322.2 725 169 571.8 169 383.5S322.2 42 510.5 42 852 195.2 852 383.5 698.8 725 510.5 725zM496.1 231.8c-9.7 0-19.5 0.9-29.3 2.7-21 3.9-40.7 11.6-58.4 23.1-10.6 6.8-13.6 20.9-6.8 31.5 6.8 10.6 20.9 13.6 31.5 6.8 12.7-8.2 26.9-13.8 42-16.6 46-8.4 92.4 11.4 118.1 50.5 6.9 10.5 21.1 13.4 31.5 6.5 10.5-6.9 13.4-21 6.5-31.5-30.4-46.1-81.3-73-135.1-73z"  horiz-adv-x="1024" />
      
      <glyph glyph-name="tianjia1" unicode="&#58914;" d="M512.1-3.1c-213.4 0-387 173.6-387 387s173.6 387 387 387 387-173.6 387-387-173.6-387-387-387z m0 728.5c-188.3 0-341.5-153.2-341.5-341.5s153.2-341.5 341.5-341.5 341.5 153.2 341.5 341.5-153.3 341.5-341.5 341.5zM512.1 208.9c-12.6 0-22.8 10.2-22.8 22.8V536.2c0 12.6 10.2 22.8 22.8 22.8 12.6 0 22.8-10.2 22.8-22.8v-304.6c-0.1-12.5-10.3-22.7-22.8-22.7zM664.3 361.1H359.8c-12.6 0-22.8 10.2-22.8 22.8s10.2 22.8 22.8 22.8h304.6c12.6 0 22.8-10.2 22.8-22.8s-10.3-22.8-22.9-22.8z"  horiz-adv-x="1024" />
      
      <glyph glyph-name="gengduo" unicode="&#58915;" d="M512.3-3.2c-213.4 0-387 173.6-387 387s173.6 387 387 387 387-173.6 387-387-173.6-387-387-387z m0 728.4C324 725.2 170.8 572 170.8 383.7S324 42.2 512.3 42.2s341.5 153.2 341.5 341.5-153.2 341.5-341.5 341.5zM512.3 535.9m-37.9 0a37.9 37.9 0 1 1 75.8 0 37.9 37.9 0 1 1-75.8 0ZM512.3 383.8m-37.9 0a37.9 37.9 0 1 1 75.8 0 37.9 37.9 0 1 1-75.8 0ZM512.3 231.7m-37.9 0a37.9 37.9 0 1 1 75.8 0 37.9 37.9 0 1 1-75.8 0Z"  horiz-adv-x="1024" />
      
      <glyph glyph-name="lianjie" unicode="&#58916;" d="M790.5 379.7l-11.3-11.3c-8.5-8.5-22.3-8.5-30.8 0s-8.5 22.3 0 30.8l11.3 11.3c66.1 66.1 66.1 173.6 0 239.7s-173.6 66.1-239.7 0l-45.1-45.1c-66.1-66.1-66.1-173.6 0-239.7 8.5-8.5 8.5-22.3 0-30.8s-22.3-8.5-30.8 0c-83 83-83 218.2 0 301.2l45.1 45.1c83.1 83.1 218.2 83 301.2 0 83.1-83.1 83.1-218.2 0.1-301.2zM593.3 182.4l-45.1-45.1c-83-83-218.2-83-301.2 0s-83 218.2 0 301.2l11.3 11.3c8.5 8.5 22.3 8.5 30.8 0s8.5-22.3 0-30.8l-11.3-11.3c-66.1-66.1-66.1-173.6 0-239.7s173.6-66.1 239.7 0l45.1 45.1c66.1 66.1 66.1 173.6 0 239.7-8.5 8.5-8.5 22.3 0 30.8s22.3 8.5 30.8 0c82.9-83 82.9-218.1-0.1-301.2z"  horiz-adv-x="1024" />
      
      <glyph glyph-name="fenxiang1" unicode="&#58917;" d="M744.3 31.3H280.2c-65.3 0-118.5 53.2-118.5 118.5v464c0 65.3 53.2 118.5 118.5 118.5h138.6c12.4 0 22.4-10 22.4-22.4s-10-22.4-22.4-22.4H280.2c-40.7 0-73.7-33.1-73.7-73.7v-464.1c0-40.7 33.1-73.7 73.7-73.7h464.1c40.7 0 73.7 33.1 73.7 73.7V287.2c0 12.4 10 22.4 22.4 22.4s22.4-10 22.4-22.4v-137.4c0-65.4-53.2-118.5-118.5-118.5zM713.7 426.8c-6.1 0-12.2 2.5-16.6 7.4-8.3 9.2-7.5 23.3 1.7 31.6l116.7 104.9c3.4 3.4 3.7 10-0.1 14.6L709.3 700.9c-8.4 9.1-7.7 23.3 1.4 31.6s23.3 7.7 31.6-1.4l106.8-116.5c19.5-23.4 17.9-55.9-3-76.5L728.7 432.5c-4.3-3.9-9.7-5.7-15-5.7zM412.3 308.2c-2.8 0-5.5 0.5-8.3 1.6-11.5 4.6-17.1 17.5-12.5 29 1.1 2.7 109.5 265.7 417.8 263.2 12.4-0.1 22.3-10.2 22.2-22.6-0.1-12.3-10.1-22.2-22.4-22.2h-5c-273.6 0-367.1-225.4-371-235.1-3.5-8.5-11.9-13.9-20.8-13.9z"  horiz-adv-x="1024" />
      
      <glyph glyph-name="jingshi" unicode="&#58918;" d="M512.5-3.2c-213.4 0-387 173.6-387 387s173.6 387 387 387 387-173.6 387-387-173.6-387-387-387z m0 728.5C324.2 725.3 171 572.1 171 383.8s153.2-341.5 341.5-341.5S854 195.6 854 383.8 700.8 725.3 512.5 725.3zM512.5 225.9m-37.9 0a37.9 37.9 0 1 1 75.8 0 37.9 37.9 0 1 1-75.8 0ZM512.5 292.1c-13 0-24.4 11-25.3 25.3l-12.3 193.5c-2.2 34.8 14.7 54.4 37.6 54.4 22.9 0 39.8-19.6 37.6-54.4l-12.3-193.5c-0.9-14.3-12.3-25.3-25.3-25.3z"  horiz-adv-x="1024" />
      
      <glyph glyph-name="shipin" unicode="&#58919;" d="M871.2 223.9c-4.6 0-9.2 0.8-13.6 2.5l-147.2 56.1V486.3l147.2 56.1c11.7 4.5 24.9 2.9 35.3-4.2 10.3-7.1 16.5-18.9 16.5-31.4v-244.6c0-12.6-6.2-24.3-16.5-31.5-6.5-4.5-14-6.8-21.7-6.8z m-119.1 87.4l115.6-44V501.6l-115.6-44v-146.3zM621.2 114.3H244.8c-70.7 0-128.2 57.5-128.2 128.2V526.3c0 70.7 57.5 128.2 128.2 128.2h376.4c70.7 0 128.2-57.5 128.2-128.2v-283.8c0-70.7-57.5-128.2-128.2-128.2zM244.8 612.8c-47.7 0-86.5-38.8-86.5-86.5v-283.8c0-47.7 38.8-86.5 86.5-86.5h376.4c47.7 0 86.5 38.8 86.5 86.5V526.3c0 47.7-38.8 86.5-86.5 86.5H244.8z"  horiz-adv-x="1024" />
      
      <glyph glyph-name="yuyin1" unicode="&#58920;" d="M512.3 212.9c-112.7 0-204.4 91.7-204.4 204.4V596.7c0 112.7 91.7 204.4 204.4 204.4s204.4-91.7 204.4-204.4v-179.5c0-112.6-91.7-204.3-204.4-204.3z m0 537.6c-84.8 0-153.8-69-153.8-153.8v-179.5c0-84.8 69-153.7 153.8-153.7S666 332.5 666 417.2V596.7c0 84.8-68.9 153.8-153.7 153.8zM512.3 105.5c-139.4 0-264.1 83.7-317.6 213.2-5.4 12.9 0.8 27.7 13.7 33.1 13 5.4 27.7-0.8 33.1-13.7 45.7-110.5 152-181.9 270.9-181.9 118.8 0 225.1 71.4 270.9 181.9 5.3 12.9 20.1 19.1 33.1 13.7 12.9-5.3 19.1-20.1 13.7-33.1-53.7-129.5-178.4-213.2-317.8-213.2zM512.3-33.5c-14 0-25.3 11.3-25.3 25.3V102.6c0 14 11.3 25.3 25.3 25.3s25.3-11.3 25.3-25.3v-110.8c0-14-11.3-25.3-25.3-25.3z"  horiz-adv-x="1024" />
      
      <glyph glyph-name="shanchu1" unicode="&#58921;" d="M515 2c-213.5 0-387.3 173.7-387.3 387.3S301.5 776.5 515 776.5s387.3-173.7 387.3-387.3S728.6 2 515 2z m0 729c-188.4 0-341.7-153.3-341.7-341.7S326.6 47.5 515 47.5s341.7 153.3 341.7 341.7S703.5 731 515 731zM402.2 253.6c-5.8 0-11.7 2.2-16.1 6.7-8.9 8.9-8.9 23.3 0 32.2l225.7 225.7c8.9 8.9 23.3 8.9 32.2 0s8.9-23.3 0-32.2L418.3 260.3c-4.4-4.5-10.3-6.7-16.1-6.7zM627.9 253.6c-5.8 0-11.7 2.2-16.1 6.7L386.1 486c-8.9 8.9-8.9 23.3 0 32.2 8.9 8.9 23.3 8.9 32.2 0L644 292.5c8.9-8.9 8.9-23.3 0-32.2-4.5-4.5-10.3-6.7-16.1-6.7z"  horiz-adv-x="1024" />
      
      <glyph glyph-name="shuaxin" unicode="&#58922;" d="M806.1 348.9c-10.8 0-21.3 3.1-30.5 8.9l-0.8 0.5-140.2 99.2c-9 6.4-11.2 18.9-4.8 27.9s18.9 11.2 27.9 4.8l139.7-98.9c7.3-4.4 16.6-2.8 21.9 3.9L917.5 537c6.3 9.1 18.8 11.3 27.8 5.1s11.3-18.8 5.1-27.8l-98.8-142.6-0.3-0.4c-8.7-11.3-21.2-18.9-35.3-21.4-3.3-0.7-6.6-1-9.9-1zM446.9 7.7c-51 0-100.6 10-147.2 29.7-45 19-85.5 46.3-120.2 81s-62 75.2-81 120.2c-19.7 46.6-29.7 96.2-29.7 147.2 0 51 10 100.6 29.7 147.2 19 45 46.3 85.5 81 120.2s75.2 62 120.2 81C346.4 754 395.9 764 446.9 764c51 0 100.6-10 147.2-29.7 45-19 85.5-46.3 120.2-81s62-75.2 81-120.2C815 486.5 825 436.9 825 385.9c0-11-9-20-20-20s-20 9-20 20c0 90.3-35.2 175.2-99 239.1-63.9 63.9-148.8 99-239.1 99-90.3 0-175.2-35.2-239.1-99-63.9-63.9-99-148.8-99-239.1s35.2-175.2 99-239.1c63.9-63.9 148.8-99 239.1-99 113.2 0 218.4 56.3 281.4 150.6 6.1 9.2 18.6 11.7 27.7 5.5 9.2-6.1 11.7-18.6 5.5-27.7-70.3-105.5-188-168.5-314.6-168.5z"  horiz-adv-x="1024" />
      
      <glyph glyph-name="yiwen" unicode="&#58923;" d="M512.7-3.4c-213.4 0-387 173.6-387 387s173.6 387 387 387 387-173.6 387-387-173.7-387-387-387z m0 728.4c-188.3 0-341.5-153.2-341.5-341.5S324.4 42 512.7 42s341.5 153.2 341.5 341.5S700.9 725 512.7 725zM515 300.1c-13.1 0-23.9 10.2-24.7 23.2-0.6 10.8 0.1 20.7 2.2 29.5 4.3 18.5 17.4 34.6 39.1 48.1 19.7 12.2 30.7 26.6 33 42.9 2.4 14.3-1.7 28.9-11.3 39.8-9.4 11.4-23.5 17.8-38.3 17.4-15.9 0-28.9-5.6-39.2-16.9-10.5-11.6-15.8-26.2-15.8-43.8 0-13.7-11.1-24.7-24.7-24.7-13.7 0-24.7 11.1-24.7 24.7 0 30.4 9.5 56.1 28.6 77.1 20 22.1 45.3 33.1 75.8 33.1 30.9 0 56.3-11.6 76-34.8 19.4-22.9 27-49.2 22.6-78.9-2.6-18-10.7-35-24.4-50.9-9-10.5-19.6-19.6-31.4-27-10.2-6.4-15.9-12.1-17.2-17.4-1-5-1.3-10.1-0.9-15.2l0.1-1.5c0-6.6-2.6-12.8-7.2-17.5-4.8-4.6-11.1-7.2-17.6-7.2zM515.7 216.6c-6.6 0-12.8 2.6-17.5 7.2-4.6 4.6-7.2 10.9-7.2 17.5v15.5c0 8.8 4.7 17 12.4 21.4 7.7 4.4 17.1 4.4 24.7 0 7.7-4.4 12.4-12.6 12.4-21.4v-15.5c-0.1-13.6-11.2-24.7-24.8-24.7z"  horiz-adv-x="1024" />
      
      <glyph glyph-name="tishi" unicode="&#58924;" d="M512-1.8c-213.4 0-387 173.6-387 387s173.6 387 387 387 387-173.6 387-387-173.6-387-387-387z m0 728.5c-188.3 0-341.5-153.2-341.5-341.5S323.7 43.7 512 43.7s341.5 153.2 341.5 341.5S700.3 726.7 512 726.7zM585.1 233.6c-15.9-5.5-28.4-9.7-37.9-12.7-9.4-3-20.4-4.5-32.9-4.5-19.1 0-34.1 4.3-44.7 12.5-10.7 8.5-16 19-16 32 0 5 0.4 10 1.2 15.2 0.8 5.2 2.2 11.2 3.8 17.7l19.8 62.7c1.8 6 0.8 11.5 2 17 1.2 5.2 1.8 10.2 1.8 14.5 0 8.3 0.8 13.8-2.9 16.8-3.8 3.2-10.7 2.3-21.2 2.3-5.2 0-10.5-0.7-15.8-2-5.4-1.5-10-0.3-13.9-1.8l5.3 19.5c12.9 4.7 25.4 8.7 37.2 12 11.8 3.5 23.1 5 33.5 5 19.1 0 33.8-4 44.1-12.2 10.3-8.2 21.7-19 21.7-32 0-2.8-0.4-7.5-1.1-14.5-0.7-6.7-2-13-3.9-18.7L539.1 300c-1.5-5-3-10.7-4.2-17.2-1.4-6.2-2-11.2-2-14.5 0-8.2 2.2-14 6.3-17 4.2-3 11.4-4.5 21.6-4.5 4.8 0 10.2 0.7 16.3 2.2 6.1 1.5 10.5 2.8 13.2 4l-5.2-19.4zM581.6 486.9c-9.1-7.7-20.2-11.5-33.1-11.5-12.9 0-24 3.7-33.4 11.5-9.2 7.5-13.8 16.7-13.8 27.7 0 10.8 4.6 20 13.8 27.7 9.4 7.7 20.5 11.7 33.4 11.7 12.9 0 24-4 33.1-11.7 9.2-7.7 13.9-17 13.9-27.7-0.1-11-4.7-20.2-13.9-27.7z"  horiz-adv-x="1024" />
      
      <glyph glyph-name="shanchu2" unicode="&#58925;" d="M917.9 595.5H106.7c-12.4 0-22.4 10-22.4 22.4s10 22.4 22.4 22.4H918c12.4 0 22.4-10 22.4-22.4s-10.1-22.4-22.5-22.4zM693-23.3H331.5c-66.9 0-121.4 54.4-121.4 121.3V596.4c0 24.3 19.8 44 44 44h516.1c24.3 0 44-19.8 44-44v-498.3c0.2-66.9-54.2-121.4-121.2-121.4z m76.5 619.7l-515.3-0.8 0.8-497.5c0-42.2 34.3-76.5 76.5-76.5H693c42.2 0 76.5 34.3 76.5 76.5V596.4zM666.4 595.5H358.1V718.2c0 37.5 30.5 68 68 68h172.4c37.5 0 68-30.5 68-68v-122.7zM403 640.4h218.6v77.8c0 12.7-10.4 23.1-23.1 23.1H426.1c-12.7 0-23.1-10.4-23.1-23.1v-77.8zM380.6 142.6c-12.4 0-22.4 10-22.4 22.4V410.3c0 12.4 10 22.4 22.4 22.4s22.4-10 22.4-22.4V165c0-12.4-10-22.4-22.4-22.4zM644 142.6c-12.4 0-22.4 10-22.4 22.4V410.3c0 12.4 10 22.4 22.4 22.4 12.4 0 22.4-10 22.4-22.4V165c0-12.4-10-22.4-22.4-22.4zM512.3 228.3c-12.4 0-22.4 10-22.4 22.4v98.7c0 12.4 10 22.4 22.4 22.4 12.4 0 22.4-10 22.4-22.4v-98.7c0-12.3-10-22.4-22.4-22.4z"  horiz-adv-x="1024" />
      
      <glyph glyph-name="wangluo1" unicode="&#58926;" d="M907.1 335.2c-0.7 0-1.3 0-2 0.1-70.3 7-143.7 12.1-218.1 15.1-10.7 0.4-19.2 9.3-19.2 20v1.9 1.4c0 75.8-7.5 150.4-21.5 215.9-13.4 62.7-32.5 116-55.3 154.2-4.1 6.9-3.7 15.6 1.1 22.1 4.8 6.5 13 9.5 20.8 7.6 44.5-10.8 86.6-28.8 125.2-53.7 37.9-24.4 71.4-54.7 99.6-89.9 28.4-35.6 50.6-75.4 65.9-118.1 15.8-44.2 23.8-90.7 23.9-138.1 0-6.1-0.2-12.4-0.5-19.5-0.3-5.5-2.8-10.6-6.9-14.2-3.5-3.1-8.2-4.8-13-4.8z m-199.3 54.4c61.1-2.8 121.4-6.9 179.8-12.4-0.4 41.6-7.7 82.3-21.5 121.2-13.8 38.6-33.8 74.4-59.5 106.6-41.7 52.3-97.1 92.5-159.1 116.1 36.7-84.3 58.6-203.3 60.3-331.5zM125.1 334.1c-4.8 0-9.4 1.7-13 4.8-4.2 3.6-6.7 8.7-7 14.2-0.3 7-0.5 13.9-0.5 20.6 0 47.4 8 93.9 23.7 138.2 15.2 42.8 37.4 82.5 65.8 118.2 28.2 35.3 61.7 65.6 99.6 90 38.6 24.8 80.8 42.9 125.3 53.7 7.8 1.9 16-1.1 20.8-7.6 4.8-6.5 5.2-15.2 1.1-22.1-22.8-38.2-41.9-91.6-55.3-154.3-14-65.6-21.4-140.3-21.4-216v-3.7c0-10.7-8.4-19.6-19.1-20-75.3-3.3-148.6-8.6-218-15.8-0.6-0.2-1.3-0.2-2-0.2z m259.6 387.1c-62-23.6-117.5-63.8-159.2-116.1-25.7-32.2-45.7-68.1-59.4-106.7-14-39.2-21.2-80.3-21.4-122.3 57.8 5.6 118.1 9.9 179.8 12.9 1.5 128.5 23.4 247.8 60.2 332.2zM344.4 349.9c-5.1 0-10.1 2-13.8 5.5-3.9 3.8-6.2 9-6.2 14.4v1.6 2.3c0 158.2 30.8 304.3 82.3 390.8 2.8 4.6 7.3 7.9 12.5 9.2 31.8 7.7 64.4 11.6 96.8 11.6 32.5 0 65.2-4 97.1-11.7 5.2-1.3 9.7-4.6 12.5-9.2C677 678 707.8 532 707.9 373.8v-3.4c0-5.4-2.2-10.6-6.2-14.4-3.9-3.8-9.2-5.8-14.7-5.6-54.9 2.2-110.4 3.3-165 3.3h-0.3c-58.1 0-117.5-1.3-176.6-3.9-0.2 0.1-0.5 0.1-0.7 0.1z m92.4 386.8c-20.9-37.6-38.5-88.2-51.1-147-12.9-60.6-20.2-129.1-21.3-199 52.7 2 105.6 3 157.4 3h0.3c48.2 0 97.1-0.9 145.7-2.6-1.1 69.7-8.4 138-21.3 198.5-12.6 58.8-30.2 109.4-51.1 146.9-26.2 5.7-52.8 8.6-79.4 8.6-26.5 0.2-53.1-2.7-79.2-8.4zM608.4-26.7c-6.3 0-12.3 2.9-16.1 8.1-4.8 6.5-5.2 15.2-1.1 22.1 22.6 37.9 41.6 90.8 55 152.9 14 64.9 21.4 138.9 21.7 214 0 5.4 2.2 10.6 6.2 14.4 3.9 3.8 9.2 5.8 14.6 5.5 75.2-3 149.3-8.2 220.5-15.3 10.6-1.1 18.5-10.2 18-20.8-2.1-45.4-11.6-89.7-28.2-131.6-16.1-40.7-38.5-78.5-66.7-112.2-27.9-33.5-60.8-62.2-97.7-85.4-37.6-23.6-78.4-40.8-121.4-51.2-1.7-0.3-3.2-0.5-4.8-0.5z m99.2 376.3c-2.5-125-24.3-240.9-60.1-323.3 22.9 8.7 44.9 19.6 65.8 32.7 33.3 20.9 63 46.9 88.3 77.1 25.4 30.5 45.7 64.6 60.2 101.3 12.7 32 20.7 65.5 24.1 99.9-57.9 5.4-117.7 9.5-178.3 12.3zM423.8-26.7c-1.6 0-3.1 0.2-4.7 0.6-42.9 10.4-83.7 27.5-121.2 51-36.8 23.1-69.7 51.7-97.6 85.1-28.1 33.6-50.6 71.3-66.7 111.8-16.6 41.9-26.2 86-28.5 131.2-0.5 10.6 7.3 19.8 17.9 20.9 70.2 7.3 144.4 12.6 220.4 15.9 5.4 0.2 10.7-1.8 14.7-5.5 3.9-3.8 6.2-9 6.2-14.4 0.2-75 7.7-148.9 21.7-213.7 13.4-62 32.4-114.8 54.9-152.7 4.1-6.9 3.7-15.6-1.1-22.1-3.7-5.1-9.7-8.1-16-8.1zM146.5 336.1c3.4-34.2 11.6-67.6 24.3-99.5 14.6-36.6 34.8-70.6 60.2-101 25.2-30.2 54.9-56 88.2-76.8 20.8-13 42.7-23.9 65.5-32.5-35.8 82.3-57.5 197.9-60.1 322.7-61.1-3-120.9-7.3-178.1-12.9zM516.1-37.7c-32.5 0-65.2 3.9-97 11.6-5.2 1.3-9.7 4.6-12.5 9.2-51 85.6-81.8 230.1-82.3 386.8 0 10.7 8.4 19.6 19.1 20 59.6 2.6 119.7 3.9 178.3 3.9h0.3c55.1 0 111.1-1.1 166.6-3.4 10.7-0.4 19.2-9.3 19.2-20-0.4-156.8-31.2-301.6-82.3-387.3-2.8-4.6-7.3-7.9-12.5-9.2-31.7-7.7-64.3-11.6-96.9-11.6 0.1 0 0 0 0 0z m-79.3 48.6c26.1-5.7 52.8-8.6 79.3-8.6s53.2 2.9 79.3 8.6c20.8 37.3 38.3 87.4 50.8 145.6 12.8 59.3 20.1 126.3 21.4 194.7-48.5 1.7-97.4 2.6-145.5 2.6h-0.3c-51.8 0-104.6-1-157.3-3.1 1.4-68.4 8.7-135.2 21.5-194.5 12.6-58.1 30.1-108.1 50.8-145.3z"  horiz-adv-x="1024" />
      
      <glyph glyph-name="bangong" unicode="&#58927;" d="M512.3 290.4c-12.2 0-22.1 9.9-22.1 22.1v87.9c0 12.2 9.9 22.1 22.1 22.1 12.2 0 22.1-9.9 22.1-22.1v-87.9c0-12.2-9.9-22.1-22.1-22.1zM751.8 11.4H272.9c-74.8 0-135.6 60.8-135.6 135.6V495.6c0 74.8 60.8 135.6 135.6 135.6h478.9c74.8 0 135.6-60.8 135.6-135.6V147c-0.1-74.8-60.9-135.6-135.6-135.6zM272.9 587c-50.4 0-91.4-41-91.4-91.5V147c0-50.4 41-91.4 91.4-91.4h478.9c50.4 0 91.4 41 91.4 91.4V495.6c0 50.4-41 91.5-91.4 91.5H272.9zM636.5 592.4c-12.2 0-22.1 9.9-22.1 22.1v63.6c0 19.2-15.6 34.8-34.8 34.8H445.1c-19.2 0-34.8-15.6-34.8-34.8v-63.6c0-12.2-9.9-22.1-22.1-22.1-12.2 0-22.1 9.9-22.1 22.1v63.6c0 43.5 35.4 78.9 78.9 78.9h134.6c43.5 0 78.9-35.4 78.9-78.9v-63.6c0-12.2-9.8-22.1-22-22.1zM520.3 398.5c-211.5 0-365.4 51-367.5 51.8-11.3 4.4-16.9 17.2-12.5 28.6 4.4 11.4 17.3 16.9 28.6 12.5 2.7-0.9 335.4-109.6 688.3 0.5 11.7 3.7 24-2.9 27.6-14.5 3.6-11.6-2.9-24-14.5-27.6-123.2-38.5-243.8-51.3-350-51.3z"  horiz-adv-x="1024" />
      
      <glyph glyph-name="yuedu" unicode="&#58928;" d="M521.1 494.9H323c-12 0-21.8 9.8-21.8 21.8s9.8 21.8 21.8 21.8h198.1c12 0 21.8-9.8 21.8-21.8s-9.8-21.8-21.8-21.8zM449.7 334.5H323c-12 0-21.8 9.8-21.8 21.8s9.8 21.8 21.8 21.8h126.8c12 0 21.8-9.8 21.8-21.8s-9.8-21.8-21.9-21.8zM516.7 25.7l-16.2 17.4c-28.9 31.1-71.5 42.5-101.6 42.8H240.4c-62.1 0-112.6 50.5-112.6 112.6V622.7c0 62.1 50.5 112.6 112.6 112.6h544.9c62.1 0 112.6-50.5 112.6-112.6v-424.2c0-62.1-50.5-112.6-112.6-112.6H626.6c-35.6-0.5-69.9-16-94-42.6l-15.9-17.6z m-276.3 666c-38 0-69-30.9-69-69v-424.2c0-38 31-69 69-69h158.7c17.2-0.2 71.4-3.9 117.1-41.5 30.5 26.1 69.6 41 110.1 41.5h159c38 0 69 30.9 69 69V622.7c0 38-30.9 69-69 69H240.4z"  horiz-adv-x="1024" />
      
      <glyph glyph-name="shangchuan" unicode="&#58929;" d="M401.4 286.3c-5.1 0-10.3 1.9-14.2 5.8-7.9 7.8-8 20.6-0.1 28.6l92.1 93c19.2 17.6 47.2 17.6 65.7 0.7l92.1-93c7.8-7.9 7.8-20.7-0.1-28.6-7.9-7.8-20.7-7.8-28.6 0.1l-91.4 92.3c-2.2 2-6.8 2-9.7-0.7l-91.3-92.3c-4.1-3.9-9.3-5.9-14.5-5.9zM512 68.2c-11.1 0-20.2 9-20.2 20.2V375.2c0 11.1 9 20.2 20.2 20.2 11.1 0 20.2-9 20.2-20.2v-286.8c0-11.2-9.1-20.2-20.2-20.2zM731.8 85.5c-11.1 0-20.2 9-20.2 20.2 0 11.1 9 20.2 20.2 20.2 82.1 0 148.9 66.8 148.9 148.9 0 73.3-54.6 136.6-127 147.3l-57.6 6.9-1.5 53.9c-2.8 99.5-83 177.5-182.6 177.5-97.2 0-177.3-75.9-182.4-172.9l-1.7-58.5-53.6-6.4c-74.7-8.9-131-72.4-131-147.8 0-81.2 63.6-146.6 144.7-148.8 11.1-0.3 19.9-9.6 19.6-20.7-0.3-11-9.3-19.6-20.2-19.6h-0.6c-103.1 2.8-184 85.9-184 189.2 0 95.8 71.6 176.6 166.6 187.9l18.9 2.3 0.7 24.3c6.2 118.7 104.1 211.4 222.7 211.4 121.6 0 219.6-95.2 223-216.7l0.5-19.1 23.8-2.9c92.6-13.7 162-94.2 162-187.4 0-104.3-84.9-189.2-189.2-189.2z"  horiz-adv-x="1024" />
      
      <glyph glyph-name="shangchuan1" unicode="&#58930;" d="M757.9 20.7H266.3c-76.7 0-139.2 62.4-139.2 139.2V517.8c0 76.7 62.4 139.2 139.2 139.2 12.5 0 22.6-10.1 22.6-22.6 0-12.5-10.1-22.6-22.6-22.6-51.8 0-93.9-42.1-93.9-93.9V160c0-51.8 42.1-93.9 93.9-93.9h491.6c51.8 0 93.9 42.1 93.9 93.9V517.8c0 51.8-42.1 93.9-93.9 93.9-12.5 0-22.6 10.1-22.6 22.6 0 12.5 10.1 22.6 22.6 22.6 76.7 0 139.2-62.4 139.2-139.2v-357.9c0-76.7-62.4-139.1-139.2-139.1zM370.3 572.9c-5.8 0-11.5 2.2-15.9 6.5-8.9 8.8-8.9 23.1-0.2 32l118 119.2c23.3 21.4 57.2 21.4 79.7 0.8l118-119.1c8.8-8.9 8.7-23.2-0.2-32-8.9-8.8-23.2-8.7-32 0.2L520.6 698.8c-4.3 3.9-11.9 3.9-16.9-0.8L386.4 579.6c-4.4-4.5-10.2-6.7-16.1-6.7zM512.2 293.1c-12.5 0-22.6 10.1-22.6 22.6V683.5c0 12.5 10.1 22.6 22.6 22.6 12.5 0 22.6-10.1 22.6-22.6v-367.7c0.1-12.5-10.1-22.7-22.6-22.7z"  horiz-adv-x="1024" />
      
      <glyph glyph-name="bofang" unicode="&#58931;" d="M512.3-3.1c-213.4 0-387 173.6-387 387s173.6 387 387 387 387-173.6 387-387-173.6-387-387-387z m0 726.6c-187.3 0-339.6-152.3-339.6-339.6S325 44.3 512.3 44.3s339.6 152.3 339.6 339.6-152.3 339.6-339.6 339.6zM447.4 243.7c-8.8 0-17.7 2.3-25.9 6.8-18.3 10.2-29.7 30-29.7 51.8V465.5c0 21.8 11.4 41.6 29.8 51.8 17.3 9.5 37.6 8.9 54.4-1.6L605.7 434c16.9-10.7 27-29.4 27-50.2 0-20.8-10.1-39.5-27-50.1L476 252.1c-8.9-5.6-18.7-8.4-28.6-8.4z m0 232.9c-0.9 0-1.9-0.2-3-0.8-1.2-0.7-5.3-3.4-5.3-10.3v-163.3c0-6.8 4-9.6 5.3-10.3 2.9-1.6 4.9-0.6 6.3 0.2l129.7 81.6c4.5 2.9 4.9 8.4 4.9 10 0 1.7-0.3 7.2-4.9 10.1l-129.7 81.6c-0.8 0.7-1.9 1.2-3.3 1.2z"  horiz-adv-x="1024" />
      
      <glyph glyph-name="xiazai1" unicode="&#58932;" d="M758.6 20.8H266.9c-76.7 0-139.2 62.4-139.2 139.2V518c0 76.7 62.4 139.2 139.2 139.2 12.5 0 22.6-10.1 22.6-22.6 0-12.5-10.1-22.6-22.6-22.6-51.8 0-93.9-42.1-93.9-93.9V160c0-51.8 42.1-93.9 93.9-93.9h491.6c51.8 0 93.9 42.1 93.9 93.9V518c0 51.8-42.1 93.9-93.9 93.9-12.5 0-22.6 10.1-22.6 22.6 0 12.5 10.1 22.6 22.6 22.6 76.7 0 139.2-62.4 139.2-139.2V160c0.1-76.7-62.4-139.2-139.1-139.2zM512.1 293.4c-14.1 0-28 5.2-39.2 15.4l-118 119.1c-8.8 8.9-8.7 23.2 0.2 32 8.9 8.8 23.2 8.7 32-0.2l117.2-118.3c4.3-3.9 11.9-3.9 16.9 0.8l117.2 118.5c8.8 8.9 23.1 8.9 32 0.2 8.9-8.8 8.9-23.1 0.2-32l-118-119.2c-11.8-10.9-26.2-16.3-40.5-16.3zM512.8 334c-12.5 0-22.6 10.1-22.6 22.6V724.3c0 12.5 10.1 22.6 22.6 22.6 12.5 0 22.6-10.1 22.6-22.6v-367.7c0-12.5-10.1-22.6-22.6-22.6z"  horiz-adv-x="1024" />
      
      <glyph glyph-name="shouye" unicode="&#58933;" d="M777.5 13.7H247.2c-49.3 0-89.4 40.1-89.5 89.3V484.1c0.2 30.3 15.4 58 40.7 74.4L459 741.1c30.3 19.7 68.6 19.7 98.3 0.5l263.7-180c28.7-18.5 45.7-49.9 45.7-84.1v-374.4c0.1-49.2-40-89.3-89.2-89.4z m-268.8 695c-8 0-16.1-2.3-23.1-6.8L224.8 519.2c-12.5-8.1-19.6-21.1-19.7-35.3V103c0-23.1 19-42 42.1-42h530.3c23.1 0 42 18.9 42 42V477.5c0 18-9.1 34.6-24.3 44.4l-0.6 0.4-263.5 179.8c-6.7 4.4-14.5 6.6-22.4 6.6zM512.3 155.2c-13.1 0-23.7 10.6-23.7 23.7V345.1c0 13.1 10.6 23.7 23.7 23.7s23.7-10.6 23.7-23.7v-166.2c0-13.1-10.6-23.7-23.7-23.7z"  horiz-adv-x="1024" />
      
      <glyph glyph-name="xiazai" unicode="&#58934;" d="M512.4 67.7c-11.6 0-23.1 4.2-32.2 12.6l-92.1 93c-7.8 7.9-7.8 20.7 0.1 28.6 7.9 7.8 20.7 7.8 28.6-0.1l91.4-92.3c2.3-2.1 6.7-2.1 9.7 0.7l91.4 92.3c7.8 7.9 20.6 8 28.5 0.1 7.9-7.8 8-20.6 0.1-28.5l-92.1-93c-9.7-9-21.6-13.4-33.4-13.4zM513 99.3c-11.1 0-20.2 9-20.2 20.2V406.3c0 11.1 9 20.2 20.2 20.2s20.2-9 20.2-20.2v-286.8c0-11.1-9.1-20.2-20.2-20.2zM732.8 85.1c-11.1 0-20.2 9-20.2 20.2s9 20.2 20.2 20.2c82.1 0 148.9 66.8 148.9 148.9 0 73.3-54.6 136.6-127 147.3l-57.6 6.9-1.5 53.9C692.8 582 612.6 660 513 660c-97.2 0-177.3-75.9-182.4-172.9l-1.7-58.5-53.6-6.4c-74.7-8.9-131-72.4-131-147.8 0-81.2 63.6-146.6 144.7-148.8 11.1-0.3 19.9-9.6 19.6-20.7-0.3-11-9.3-19.6-20.2-19.6h-0.6C184.8 88 104 171 104 274.3c0 95.8 71.6 176.6 166.6 187.9l18.9 2.3 0.7 24.4c6.2 118.6 104.1 211.4 222.7 211.4 121.6 0 219.6-95.2 223-216.7l0.5-19.1 23.8-2.9C852.6 448 922 367.5 922 274.3c0-104.4-84.9-189.2-189.2-189.2z"  horiz-adv-x="1024" />
      
      <glyph glyph-name="fenxiang4" unicode="&#58935;" d="M663.8-5.1h-3.2c-34.6 0.9-60.9 10.7-88.1 32.5-8.3 6.7-64.7 61.1-89.6 85.2l-89.4-39.3c-15.2-6.7-31.7-7-46.4-1-15 6.1-26.9 18.4-33.5 34.6-1.1 2.6-1.6 3.8-29.6 143.8-21.3 0.3-46 0.6-62 0.8l-17 0.2c-29.3-1-58.1 10.1-80 31.4-22.5 21.9-34.8 51.5-34.5 83.4 0.4 47.8 26.8 85.7 74.3 106.7C201.8 489.6 628.1 628 735 657c21.9 5.9 41 6.7 58.4 2.4 17.2-4.2 32.8-13.1 45.3-25.6 31-30.9 32.4-63.1 23.6-123.6-0.6-3.9-62.6-402.8-78.5-435.8-23.7-49.3-69.4-79.5-120-79.5zM492.9 168.1l11.3-11.1c14.2-14 90-87 97.6-93.2 22.1-17.7 39.4-21.7 60.1-22.2 33.5-0.7 63.5 19 79.9 53 11.2 27.6 65.9 364.4 74.3 422.3 8.1 55.8 4.9 68.7-10.5 84-6.5 6.6-14.5 11.1-23.3 13.3h-0.1c-9.5 2.4-21 1.7-35-2.1-110.6-30.1-532.9-168-563.7-181.5-30.6-13.6-46.3-35.2-46.5-64.5-0.2-19 7.1-36.6 20.4-49.5 12.7-12.4 29.2-18.8 46.7-18.2 1.3 0 8.2-0.1 18.4-0.2 21.1-0.3 57.1-0.7 80.8-1l18.9-0.2 3.7-18.5c11.3-56.6 28.4-141.7 31.4-155.3 1.4-2.9 3.7-6.1 7.2-7.6 3-1.2 6.6-1 10.2 0.5l118.2 52zM419.6 207.1c-5.9 0-11.7 2.2-16.3 6.6-9.2 9-9.4 23.7-0.4 33L568.7 417c9 9.2 23.7 9.4 33 0.4 9.2-9 9.4-23.7 0.4-33L436.3 214.2c-4.6-4.7-10.6-7.1-16.7-7.1z"  horiz-adv-x="1024" />
      
      <glyph glyph-name="xiaoxi3" unicode="&#58936;" d="M614.5 430.7H378.2c-12 0-21.7 9.7-21.7 21.7s9.7 21.7 21.7 21.7h236.3c12 0 21.7-9.7 21.7-21.7s-9.7-21.7-21.7-21.7zM496.4 247.3H378.2c-12 0-21.7 9.7-21.7 21.7s9.7 21.7 21.7 21.7h118.2c12 0 21.7-9.7 21.7-21.7-0.1-12-9.8-21.7-21.7-21.7zM513.3-12.3c-47.9 0-97.1 9.4-136.5 25.9-44.5-15.4-100.2-25.7-135.3-24.8-19.1 0.2-37.1 10.8-46.8 27.6-9.6 16.8-9.7 37.7-0.2 54.5 20.4 36.4 23.6 62 11 88.1l-27.1 55.4c-17 42.9-25.9 89.3-25.9 134.1 0 199 161.8 360.8 360.8 360.8s360.8-161.8 360.8-360.8-161.8-360.8-360.8-360.8z m-134.7 72.6l8.2-3.8C422 40.3 468.1 31 513.3 31c175.1 0 317.5 142.4 317.5 317.5S688.4 666 513.3 666 195.8 523.6 195.8 348.5c0-39.1 7.8-79.7 22.6-117.4l26.1-53.2c24.4-50.7 6.3-95.1-12.2-128.2-2.1-3.7-2.1-8.1 0-11.7 2.1-3.6 5.9-5.8 10-5.9 32.3-0.8 87.3 10.1 127.9 25.1l8.4 3.1z"  horiz-adv-x="1024" />
      
      <glyph glyph-name="fenxiang3" unicode="&#58937;" d="M234.6-12.7l-30.9 31c-30 30-55.3 104.2-55.3 162 0 199 178.9 374.3 388.3 386.6V685.1c0 13.7 1.2 25.4 16.5 40.7 18.1 18.2 48.7 18.2 66.8 0l243.2-267.4c11.2-11.6 11.2-28.2 11.2-35.3 0-6.6 0-24.2-16.5-40.7L615.7 120.9c-9.8-9.8-25-13.1-35.3-13.1-12.7 0-24.1 4.4-32.1 12.4l-2.7 2.7-1.7 3.4c-6.7 13.5-7.3 22.1-7.3 29.8V277.6C395 267.1 268.5 162.3 243 30.3l-8.4-43z m325.3 533.8c-194.4 0-365-159.2-365-340.8 0-28.3 7.8-61.2 18.1-87.4 52.2 133.7 194.5 232 347 232h23.2v-170.3c0.2 0 0.5 0.1 0.7 0.2l240.5 259.8c3.5 3.5 3.5 5.2 3.5 8.5 0 1.1 0 3.6-0.2 5.3L586.4 693.7c-2.8-3.3-3.4-4.3-3.4-4.3 0.1-0.6 0.2-2.3 0.2-4.3v-164h-23.3zM829.8 426h0.2-0.2z m-2.4 3.5z"  horiz-adv-x="1024" />
      
      <glyph glyph-name="liwu" unicode="&#58938;" d="M618.7 481.1H509.9V589.7c0 58.6 47.7 106.2 106.3 106.2h2.5c58.5-0.1 106.1-47.7 106.1-106.2v-2.4c-0.1-58.5-47.7-106.1-106.1-106.2z m-62.5 46.3h62.5c33 0 59.8 26.9 59.9 59.9v2.4c0 33-26.9 59.9-59.9 59.9h-2.4c-33.1 0-60-26.9-60-59.9v-62.3zM535.7 481.1H427.2c-58.5 0.1-106.1 47.7-106.2 106.2v2.4c0.1 58.5 47.7 106.1 106.2 106.2h2.5c58.4-0.2 106-47.8 106-106.2v-108.6zM367.3 587.3c0.1-33 27-59.9 59.9-59.9h62.2v62.3c0 32.9-26.8 59.8-59.8 59.9h-2.4c-33-0.1-59.9-26.9-59.9-59.9v-2.4zM721.3-56h-415c-51.9 0-94.1 42.2-94.1 94.1V386.7h603.2v-348.6c0-51.9-42.2-94.1-94.1-94.1zM258.5 340.4v-302.3c0-26.4 21.5-47.8 47.8-47.8h415c26.4 0 47.8 21.5 47.8 47.8V340.4H258.5zM803.1 346.5H224.6c-40.5 0-73.4 32.9-73.4 73.4v27.8c0 40.5 32.9 73.4 73.4 73.4H803c40.5 0 73.4-32.9 73.4-73.4V420c0.1-40.5-32.9-73.5-73.3-73.5zM224.6 475c-15 0-27.1-12.2-27.1-27.1V420c0-15 12.2-27.1 27.1-27.1H803c15 0 27.1 12.2 27.1 27.1v27.8c0 15-12.2 27.1-27.1 27.1H224.6zM533 360.6c-12.8 0-23.1 10.4-23.1 23.1V484.1c0 12.8 10.4 23.1 23.1 23.1s23.1-10.4 23.1-23.1v-100.3c0.1-12.9-10.3-23.2-23.1-23.2z"  horiz-adv-x="1024" />
      
      <glyph glyph-name="lingdang" unicode="&#58939;" d="M405.9 635.7c-3.3 10.6-4.9 21.6-4.9 32.7 0 60.6 49.3 109.9 109.9 109.9 60.6 0 109.9-49.3 109.9-109.9 0-9-1.1-18-3.3-26.7l-48.3 12.1c1.2 4.7 1.8 9.6 1.8 14.6 0 33.1-27 60.1-60.1 60.1s-60.1-27-60.1-60.1c0-6.1 0.9-12.1 2.7-17.9l-47.6-14.8zM510.6-51.5c-77.4 0-140.4 63-140.4 140.4H420c0-49.9 40.6-90.6 90.6-90.6s90.6 40.6 90.6 90.6H651c0-77.5-63-140.4-140.4-140.4zM790.3 68H231.4c-19.9 0-38.4 10.7-48.3 27.8-10 17.2-10.1 38.6-0.3 55.8l54.9 96.6-0.2 155.2c0 150.7 122.6 273.3 273.3 273.3s273.3-122.6 273.3-273.3V248l54.8-96.4c9.8-17.2 9.7-38.6-0.2-55.7-10-17.2-28.6-27.9-48.4-27.9zM510.8 626.9c-123.2 0-223.5-100.3-223.5-223.5l0.2-168.3L226 127c-1.1-1.9-1.1-4.3 0-6.2 1.1-1.8 3.1-3 5.3-3h558.9c2.2 0 4.2 1.2 5.3 3.1 1.1 1.8 1.1 4.2 0 6.1l-61.3 107.9V403.4c0.1 123.2-100.1 223.5-223.4 223.5z"  horiz-adv-x="1024" />
      
      <glyph glyph-name="wode3" unicode="&#58940;" d="M814.2 6.6H210.4c-34.4 0-62.3 28-62.3 62.3v34.5c0 20.1 9.7 39 26.1 50.7l32.4 23.1c40.7 29.1 84.7 53.8 130.7 73.6l54.1 23.2c3.2 1.4 5.3 4.5 5.3 8v80.2c0 2.6-1.2 5.1-3.2 6.7-43.2 35.5-67.9 88-67.9 144v71c0 102.9 83.7 186.6 186.6 186.6 102.9 0 186.6-83.7 186.6-186.6v-71c0.1-55.9-24.7-108.4-67.9-144-2-1.6-3.1-4.1-3.1-6.7V282c0-3.6 2.3-6.9 5.7-8.2l77.1-29c42.1-15.8 81.1-38.4 115.7-67.3l27.7-23.1c14.2-11.9 22.4-29.3 22.4-47.9v-37.8c0.1-34.2-27.9-62.1-62.2-62.1zM512.3 724c-77.3 0-140.1-62.9-140.1-140.1v-71c-0.1-42 18.5-81.4 50.9-108.1 12.8-10.5 20.1-26.1 20.1-42.6V282c0-22.1-13.1-42-33.5-50.7L355.6 208c-43-18.4-84-41.5-122-68.7l-32.4-23.1c-4.1-3-6.6-7.8-6.6-12.9v-34.5c0-8.7 7.1-15.8 15.8-15.8h603.8c8.7 0 15.8 7.1 15.8 15.8v37.8c0 4.7-2.1 9.1-5.7 12.2l-27.7 23.1c-30.6 25.5-65 45.5-102.3 59.4l-77.1 29c-21.4 8-35.8 28.8-35.8 51.7v80.2c0 16.5 7.3 32 20.1 42.5 32.4 26.7 51 66.1 51 108.1v71.1c-0.1 77.2-63 140.1-140.2 140.1z"  horiz-adv-x="1024" />
      
      <glyph glyph-name="dingwei1" unicode="&#58941;" d="M513-39.4c-15.4 0-28.7 6.3-35.8 11.8-11 8.5-268 208.6-268 393.6 0 2.6 0.3 5.1 0.6 7.6v0.3l-0.2 2.7c-0.3 3.8-0.5 7.6-0.5 11.5 0 170 135.8 308.4 302.8 308.4S814.8 558 814.8 388c0-3.9-0.2-7.7-0.5-11.6l-0.2-2.6v-0.2c0.3-2.5 0.6-5.1 0.6-7.7 0-179.3-223.3-359.3-268-393.6-11.2-8.6-22.9-11.7-33.7-11.7z m-1 692.5c-143.1 0-259.5-118.9-259.5-265.1 0-2.9 0.2-5.8 0.4-8.6l0.4-6.6-0.1-1.5c-0.1-1.2-0.3-2.4-0.4-3.5-0.1-0.6-0.2-1.2-0.2-1.8 0-163.6 248.6-357.2 251.1-359.1 2.4-1.6 9.6-5.5 16.9 0 25.7 19.7 251 196.8 251 359.2 0 0.6-0.1 1.2-0.2 1.8l-0.6 5 0.4 6.6c0.2 2.9 0.4 5.7 0.4 8.7-0.1 146-116.5 264.9-259.6 264.9zM512 256.1c-71.6 0-129.8 59.2-129.8 131.9S440.4 519.9 512 519.9c71.6 0 129.8-59.2 129.8-131.9S583.6 256.1 512 256.1z m0 220.5c-47.7 0-86.5-39.8-86.5-88.6 0-48.9 38.8-88.7 86.5-88.7s86.5 39.8 86.5 88.7c0 48.9-38.8 88.6-86.5 88.6z"  horiz-adv-x="1024" />
      
    </font>
</defs>
</svg>
